<svg viewBox="0 0 375 72.273" x="0" y="0" fill="none" xmlns="http://www.w3.org/2000/svg"><g id="Group 3" data-node-id="34:230" xmlns="http://www.w3.org/2000/svg"><path id="Phone Number" data-node-id="34:231" d="M37.4862,4.028c0,0.494 -0.1167,0.961 -0.35,1.4c-0.2334,0.438 -0.6067,0.798 -1.12,1.078c-0.5134,0.27 -1.1714,0.406 -1.974,0.406h-1.764v3.948h-1.596v-9.73h3.36c0.7466,0 1.3766,0.13 1.89,0.392c0.5226,0.252 0.91,0.597 1.162,1.036c0.2613,0.438 0.392,0.928 0.392,1.47zM34.0422,5.61c0.6066,0 1.0593,-0.136 1.358,-0.406c0.2986,-0.28 0.448,-0.672 0.448,-1.176c0,-1.064 -0.602,-1.596 -1.806,-1.596h-1.764v3.178zM42.9983,3.02c0.588,0 1.1107,0.126 1.568,0.378c0.4667,0.252 0.8307,0.625 1.092,1.12c0.2707,0.494 0.406,1.092 0.406,1.792v4.55h-1.582v-4.312c0,-0.691 -0.1726,-1.218 -0.518,-1.582c-0.3453,-0.374 -0.8166,-0.56 -1.414,-0.56c-0.5973,0 -1.0733,0.186 -1.428,0.56c-0.3453,0.364 -0.518,0.891 -0.518,1.582v4.312h-1.596v-10.36h1.596v3.542c0.2707,-0.327 0.6114,-0.579 1.022,-0.756c0.42,-0.178 0.8774,-0.266 1.372,-0.266zM51.4461,10.986c-0.728,0 -1.386,-0.164 -1.974,-0.49c-0.588,-0.336 -1.05,-0.803 -1.386,-1.4c-0.336,-0.607 -0.504,-1.307 -0.504,-2.1c0,-0.784 0.1727,-1.48 0.518,-2.086c0.3454,-0.607 0.8167,-1.074 1.414,-1.4c0.5974,-0.327 1.2647,-0.49 2.002,-0.49c0.7374,0 1.4047,0.163 2.002,0.49c0.5974,0.326 1.0687,0.793 1.414,1.4c0.3454,0.606 0.518,1.302 0.518,2.086c0,0.784 -0.1773,1.479 -0.532,2.086c-0.3546,0.606 -0.84,1.078 -1.456,1.414c-0.6066,0.326 -1.2786,0.49 -2.016,0.49zM51.4461,9.6c0.4107,0 0.7934,-0.098 1.148,-0.294c0.364,-0.196 0.658,-0.49 0.882,-0.882c0.224,-0.392 0.336,-0.868 0.336,-1.428c0,-0.56 -0.1073,-1.032 -0.322,-1.414c-0.2146,-0.392 -0.4993,-0.686 -0.854,-0.882c-0.3546,-0.196 -0.7373,-0.294 -1.148,-0.294c-0.4106,0 -0.7933,0.098 -1.148,0.294c-0.3453,0.196 -0.6206,0.49 -0.826,0.882c-0.2053,0.382 -0.308,0.854 -0.308,1.414c0,0.83 0.21,1.474 0.63,1.932c0.4294,0.448 0.966,0.672 1.61,0.672zM60.9199,3.02c0.6066,0 1.148,0.126 1.624,0.378c0.4853,0.252 0.8633,0.625 1.134,1.12c0.2706,0.494 0.406,1.092 0.406,1.792v4.55h-1.582v-4.312c0,-0.691 -0.1727,-1.218 -0.518,-1.582c-0.3454,-0.374 -0.8167,-0.56 -1.414,-0.56c-0.5974,0 -1.0734,0.186 -1.428,0.56c-0.3454,0.364 -0.518,0.891 -0.518,1.582v4.312h-1.596v-7.714h1.596v0.882c0.2613,-0.318 0.5926,-0.565 0.994,-0.742c0.4106,-0.178 0.8446,-0.266 1.302,-0.266zM73.1897,6.814c0,0.289 -0.0187,0.55 -0.056,0.784h-5.894c0.0466,0.616 0.2753,1.11 0.686,1.484c0.4106,0.373 0.9146,0.56 1.512,0.56c0.8586,0 1.4653,-0.36 1.82,-1.078h1.722c-0.2334,0.709 -0.658,1.292 -1.274,1.75c-0.6067,0.448 -1.3627,0.672 -2.268,0.672c-0.7374,0 -1.4,-0.164 -1.988,-0.49c-0.5787,-0.336 -1.036,-0.803 -1.372,-1.4c-0.3267,-0.607 -0.49,-1.307 -0.49,-2.1c0,-0.794 0.1586,-1.489 0.476,-2.086c0.3266,-0.607 0.7793,-1.074 1.358,-1.4c0.588,-0.327 1.26,-0.49 2.016,-0.49c0.728,0 1.3766,0.158 1.946,0.476c0.5693,0.317 1.0126,0.765 1.33,1.344c0.3173,0.569 0.476,1.227 0.476,1.974zM71.5237,6.31c-0.0094,-0.588 -0.2194,-1.06 -0.63,-1.414c-0.4107,-0.355 -0.9194,-0.532 -1.526,-0.532c-0.5507,0 -1.022,0.177 -1.414,0.532c-0.392,0.345 -0.6254,0.816 -0.7,1.414zM86.391,10.86h-1.596l-4.802,-7.266v7.266h-1.596v-9.744h1.596l4.802,7.252v-7.252h1.596zM95.473,3.146v7.714h-1.596v-0.91c-0.252,0.317 -0.583,0.569 -0.994,0.756c-0.401,0.177 -0.831,0.266 -1.288,0.266c-0.607,0 -1.153,-0.126 -1.638,-0.378c-0.476,-0.252 -0.854,-0.626 -1.134,-1.12c-0.271,-0.495 -0.406,-1.092 -0.406,-1.792v-4.536h1.582v4.298c0,0.69 0.173,1.222 0.518,1.596c0.345,0.364 0.817,0.546 1.414,0.546c0.597,0 1.069,-0.182 1.414,-0.546c0.355,-0.374 0.532,-0.906 0.532,-1.596v-4.298zM106.917,3.02c0.606,0 1.148,0.126 1.624,0.378c0.485,0.252 0.863,0.625 1.134,1.12c0.28,0.494 0.42,1.092 0.42,1.792v4.55h-1.582v-4.312c0,-0.691 -0.173,-1.218 -0.518,-1.582c-0.346,-0.374 -0.817,-0.56 -1.414,-0.56c-0.598,0 -1.074,0.186 -1.428,0.56c-0.346,0.364 -0.518,0.891 -0.518,1.582v4.312h-1.582v-4.312c0,-0.691 -0.173,-1.218 -0.518,-1.582c-0.346,-0.374 -0.817,-0.56 -1.414,-0.56c-0.598,0 -1.074,0.186 -1.428,0.56c-0.346,0.364 -0.518,0.891 -0.518,1.582v4.312h-1.596v-7.714h1.596v0.882c0.261,-0.318 0.592,-0.565 0.994,-0.742c0.401,-0.178 0.83,-0.266 1.288,-0.266c0.616,0 1.166,0.13 1.652,0.392c0.485,0.261 0.858,0.639 1.12,1.134c0.233,-0.467 0.597,-0.836 1.092,-1.106c0.494,-0.28 1.026,-0.42 1.596,-0.42zM113.722,4.294c0.27,-0.374 0.639,-0.677 1.106,-0.91c0.476,-0.243 1.003,-0.364 1.582,-0.364c0.681,0 1.297,0.163 1.848,0.49c0.55,0.326 0.984,0.793 1.302,1.4c0.317,0.597 0.476,1.283 0.476,2.058c0,0.774 -0.159,1.47 -0.476,2.086c-0.318,0.606 -0.756,1.082 -1.316,1.428c-0.551,0.336 -1.162,0.504 -1.834,0.504c-0.598,0 -1.13,-0.117 -1.596,-0.35c-0.458,-0.234 -0.822,-0.532 -1.092,-0.896v1.12h-1.596v-10.36h1.596zM118.412,6.968c0,-0.532 -0.112,-0.99 -0.336,-1.372c-0.215,-0.392 -0.504,-0.686 -0.868,-0.882c-0.355,-0.206 -0.738,-0.308 -1.148,-0.308c-0.402,0 -0.784,0.102 -1.148,0.308c-0.355,0.205 -0.644,0.504 -0.868,0.896c-0.215,0.392 -0.322,0.854 -0.322,1.386c0,0.532 0.107,0.998 0.322,1.4c0.224,0.392 0.513,0.69 0.868,0.896c0.364,0.205 0.746,0.308 1.148,0.308c0.41,0 0.793,-0.103 1.148,-0.308c0.364,-0.215 0.653,-0.523 0.868,-0.924c0.224,-0.402 0.336,-0.868 0.336,-1.4zM128.684,6.814c0,0.289 -0.019,0.55 -0.056,0.784h-5.894c0.046,0.616 0.275,1.11 0.686,1.484c0.41,0.373 0.914,0.56 1.512,0.56c0.858,0 1.465,-0.36 1.82,-1.078h1.722c-0.234,0.709 -0.658,1.292 -1.274,1.75c-0.607,0.448 -1.363,0.672 -2.268,0.672c-0.738,0 -1.4,-0.164 -1.988,-0.49c-0.579,-0.336 -1.036,-0.803 -1.372,-1.4c-0.327,-0.607 -0.49,-1.307 -0.49,-2.1c0,-0.794 0.158,-1.489 0.476,-2.086c0.326,-0.607 0.779,-1.074 1.358,-1.4c0.588,-0.327 1.26,-0.49 2.016,-0.49c0.728,0 1.376,0.158 1.946,0.476c0.569,0.317 1.012,0.765 1.33,1.344c0.317,0.569 0.476,1.227 0.476,1.974zM127.018,6.31c-0.01,-0.588 -0.22,-1.06 -0.63,-1.414c-0.411,-0.355 -0.92,-0.532 -1.526,-0.532c-0.551,0 -1.022,0.177 -1.414,0.532c-0.392,0.345 -0.626,0.816 -0.7,1.414zM131.85,4.266c0.234,-0.392 0.542,-0.696 0.924,-0.91c0.392,-0.224 0.854,-0.336 1.386,-0.336v1.652h-0.406c-0.625,0 -1.101,0.158 -1.428,0.476c-0.317,0.317 -0.476,0.868 -0.476,1.652v4.06h-1.596v-7.714h1.596z" fill="#7A00E6"/><path id="Subtract" data-node-id="34:232" fill-rule="evenodd" clip-rule="evenodd" d="M24.5232,6.776h-4.5232c-11.0457,0 -20,8.954 -20,20v25.497c0,11.045 8.9543,20 20,20h335c11.046,0 20,-8.955 20,-20v-25.497c0,-11.046 -8.954,-20 -20,-20h-198.665v1.6h198.665c10.162,0 18.4,8.238 18.4,18.4v25.497c0,10.162 -8.238,18.4 -18.4,18.4h-335c-10.162,0 -18.4,-8.238 -18.4,-18.4v-25.497c0,-10.162 8.238,-18.4 18.4,-18.4h4.5232z" fill="#7A00E6"/></g></svg>