<svg viewBox="0 0 375 65.5" fill="none" xmlns="http://www.w3.org/2000/svg" xmlns:xlink="http://www.w3.org/1999/xlink" id="c1571f2a" x="0" y="0"><g id="iPhone 14 &amp; 15 Pro Max - 2" data-node-id="34:220" clip-path="url(#clip0_34_220)"><g id="OTP" data-node-id="34:221"><path id="Subtract_2" data-node-id="34:235" fill-rule="evenodd" clip-rule="evenodd" d="M20.9496,0h-1.4496c-11.0457,0 -20,8.954 -20,20v25c0,11.046 8.9543,20 20,20h335c11.046,0 20,-8.954 20,-20v-25c0,-11.046 -8.954,-20 -20,-20h-285.2888v1.6h285.2888c10.162,0 18.4,8.238 18.4,18.4v25c0,10.162 -8.238,18.4 -18.4,18.4h-335c-10.162,0 -18.4,-8.238 -18.4,-18.4v-25c0,-10.162 8.238,-18.4 18.4,-18.4h1.4496z" fill="#DDDDDD"/><g id="Edit icon" data-node-id="34:238"><path id="Vector" data-node-id="I34:238;526:611" d="M337.326,21.728l-9.554,10.023c-0.365,0.381 -0.654,0.834 -0.851,1.332c-0.197,0.499 -0.297,1.034 -0.296,1.574v1.104c0,0.218 0.083,0.427 0.23,0.582c0.146,0.154 0.346,0.24 0.554,0.24h1.052c0.515,0.002 1.024,-0.104 1.5,-0.31c0.475,-0.207 0.907,-0.51 1.27,-0.893l9.554,-10.023c0.458,-0.482 0.715,-1.135 0.715,-1.815c0,-0.68 -0.257,-1.333 -0.715,-1.814c-0.466,-0.467 -1.085,-0.728 -1.73,-0.728c-0.644,0 -1.263,0.261 -1.729,0.728zM339.677,24.194l-9.554,10.023c-0.442,0.461 -1.039,0.72 -1.662,0.722h-0.269v-0.282c0.002,-0.653 0.249,-1.28 0.688,-1.744l9.554,-10.023c0.167,-0.168 0.39,-0.261 0.621,-0.261c0.232,0 0.454,0.093 0.622,0.261c0.164,0.173 0.257,0.408 0.257,0.652c0,0.245 -0.093,0.479 -0.257,0.652z" fill="#A6A6A6"/><path id="Subtract_3" data-node-id="I34:238;526:612" fill-rule="evenodd" clip-rule="evenodd" d="M331.875,22.2c0,-0.663 -0.537,-1.2 -1.2,-1.2h-5.175c-2.761,0 -5,2.239 -5,5v12c0,2.761 2.239,5 5,5h11c2.761,0 5,-2.239 5,-5v-5.717c0,-0.662 -0.537,-1.2 -1.2,-1.2c-0.663,0 -1.2,0.538 -1.2,1.2v5.717c0,1.436 -1.164,2.6 -2.6,2.6h-11c-1.436,0 -2.6,-1.164 -2.6,-2.6v-12c0,-1.436 1.164,-2.6 2.6,-2.6h5.175c0.663,0 1.2,-0.537 1.2,-1.2z" fill="#A6A6A6"/></g></g></g><defs><clipPath id="clip0_34_220"><rect width="430" height="932" fill="white"/></clipPath></defs></svg>